<?xml version="1.0" encoding="UTF-8" standalone="no"?>
<svg
   xmlns:dc="http://purl.org/dc/elements/1.1/"
   xmlns:cc="http://creativecommons.org/ns#"
   xmlns:rdf="http://www.w3.org/1999/02/22-rdf-syntax-ns#"
   xmlns:svg="http://www.w3.org/2000/svg"
   xmlns="http://www.w3.org/2000/svg"
   xmlns:xlink="http://www.w3.org/1999/xlink"
   xmlns:sodipodi="http://sodipodi.sourceforge.net/DTD/sodipodi-0.dtd"
   xmlns:inkscape="http://www.inkscape.org/namespaces/inkscape"
   id="svg2956"
   viewBox="0 0 705.04 702.65"
   version="1.1"
   inkscape:version="0.48.3.1 r9886"
   width="100%"
   height="100%"
   sodipodi:docname="outlet.svg"
   inkscape:export-filename="/home/workspace/android/workspace/EnergyTimes/EnergyTimes/src/main/res/outlet.png"
   inkscape:export-xdpi="120"
   inkscape:export-ydpi="120">
  <sodipodi:namedview
     pagecolor="#ffffff"
     bordercolor="#666666"
     borderopacity="1"
     objecttolerance="10"
     gridtolerance="10"
     guidetolerance="10"
     inkscape:pageopacity="0"
     inkscape:pageshadow="2"
     inkscape:window-width="683"
     inkscape:window-height="756"
     id="namedview43"
     showgrid="false"
     inkscape:zoom="0.33587134"
     inkscape:cx="352.52"
     inkscape:cy="351.325"
     inkscape:window-x="0"
     inkscape:window-y="12"
     inkscape:window-maximized="0"
     inkscape:current-layer="svg2956" />
  <defs
     id="defs2958">
    <linearGradient
       id="linearGradient5633"
       y2="-4116.2"
       gradientUnits="userSpaceOnUse"
       x2="3234.5"
       gradientTransform="matrix(.18052 0 0 .18052 -211.37 1259.2)"
       y1="-4159.2"
       x1="3187.8">
      <stop
         id="stop5629"
         stop-color="#222"
         offset="0" />
      <stop
         id="stop5631"
         stop-color="#a5a5a5"
         offset="1" />
    </linearGradient>
    <linearGradient
       id="linearGradient5615"
       y2="-4075"
       xlink:href="#linearGradient5609"
       gradientUnits="userSpaceOnUse"
       x2="3196.2"
       gradientTransform="matrix(.18052 0 0 .18052 -211.37 1259.2)"
       y1="-4196.7"
       x1="3160.8" />
    <linearGradient
       id="linearGradient5609">
      <stop
         id="stop5611"
         offset="0" />
      <stop
         id="stop5613"
         stop-color="#fff"
         offset="1" />
    </linearGradient>
    <clipPath
       id="clipPath5540"
       clipPathUnits="userSpaceOnUse">
      <rect
         id="rect5542"
         stroke-linejoin="round"
         ry="87.851"
         height="3060.1"
         width="3052.8"
         stroke="#000"
         y="2016.9"
         x="2699.6"
         stroke-width="7.0866"
         fill="none" />
    </clipPath>
    <filter
       id="filter5532"
       width="1.3051"
       y="-.15291"
       x="-.15254"
       height="1.3058"
       color-interpolation-filters="sRGB">
      <feGaussianBlur
         id="feGaussianBlur5534"
         stdDeviation="194.50253" />
    </filter>
    <linearGradient
       id="linearGradient5503"
       y2="-3016.8"
       xlink:href="#linearGradient5609"
       gradientUnits="userSpaceOnUse"
       x2="2429.2"
       gradientTransform="matrix(.17643 0 0 .17742 -263.36 215.76)"
       y1="-5133.8"
       x1="2452.5" />
    <linearGradient
       id="linearGradient5571"
       y2="-4084.8"
       gradientUnits="userSpaceOnUse"
       x2="3152.6"
       gradientTransform="translate(-2867.8 4763.3)"
       y1="-4952.6"
       x1="3152.6">
      <stop
         id="stop5567"
         stop-color="#838383"
         offset="0" />
      <stop
         id="stop5569"
         stop-color="#b3b3b3"
         stop-opacity="0"
         offset="1" />
    </linearGradient>
    <filter
       id="filter5561"
       color-interpolation-filters="sRGB">
      <feGaussianBlur
         id="feGaussianBlur5563"
         stdDeviation="8.5105824" />
    </filter>
    <linearGradient
       id="linearGradient5625"
       y2="4797.4"
       xlink:href="#linearGradient5609"
       gradientUnits="userSpaceOnUse"
       x2="3238.6"
       y1="6463.5"
       x1="4607.1" />
    <linearGradient
       id="linearGradient5499"
       y2="-3016.8"
       xlink:href="#linearGradient5609"
       gradientUnits="userSpaceOnUse"
       x2="2429.2"
       gradientTransform="matrix(.18052 0 0 .18052 -278.65 1251.7)"
       y1="-5133.8"
       x1="2452.5" />
    <linearGradient
       id="linearGradient5536"
       y2="3576.3"
       gradientUnits="userSpaceOnUse"
       x2="5859.5"
       gradientTransform="matrix(.18052 0 0 .18052 -1251.7 -278.65)"
       y1="3506.7"
       x1="2827.7">
      <stop
         id="stop5515"
         stop-color="#ccc"
         offset="0" />
      <stop
         id="stop5517"
         stop-color="#fff"
         offset="1" />
    </linearGradient>
    <filter
       id="filter5554"
       width="1.3042"
       y="-.15336"
       x="-.15209"
       height="1.3067"
       color-interpolation-filters="sRGB">
      <feGaussianBlur
         id="feGaussianBlur5556"
         stdDeviation="194.50308" />
    </filter>
  </defs>
  <g
     id="layer1"
     transform="translate(-21.873 -171.94)">
    <rect
       id="rect5544"
       opacity=".56944"
       stroke-linejoin="round"
       transform="matrix(0 -.17582 .17634 0 -256.24 1244.4)"
       ry="87.851"
       height="3060.1"
       filter="url(#filter5554)"
       width="3052.8"
       stroke="#000"
       y="2046.2"
       x="2575.1"
       stroke-width="7.2652" />
    <rect
       id="rect4704"
       stroke-linejoin="round"
       ry="15.858"
       transform="rotate(-90)"
       height="552.4"
       width="551.08"
       stroke="#000"
       y="90.719"
       x="-786.83"
       stroke-width="1.2792"
       fill="url(#linearGradient5536)" />
    <rect
       id="rect5478"
       stroke-linejoin="round"
       ry="11.078"
       height="385.89"
       width="408.35"
       stroke="url(#linearGradient5499)"
       y="318.35"
       x="162.74"
       stroke-width="5.7566"
       fill="none" />
    <path
       id="path5480"
       stroke-linejoin="round"
       d="m4458.4 5578.5c0 416.45-337.6 754.05-754.05 754.05s-754.05-337.6-754.05-754.05 337.6-754.05 754.05-754.05 754.05 337.6 754.05 754.05z"
       transform="matrix(.19191 0 0 .19191 -345.3 -569.18)"
       stroke="#000"
       stroke-linecap="square"
       stroke-width="6.6659"
       fill="none" />
    <path
       id="path5482"
       stroke-linejoin="round"
       d="m4458.4 5578.5c0 416.45-337.6 754.05-754.05 754.05s-754.05-337.6-754.05-754.05 337.6-754.05 754.05-754.05 754.05 337.6 754.05 754.05z"
       transform="matrix(.023660 0 0 .023660 215.84 378.64)"
       stroke="#666"
       stroke-linecap="square"
       stroke-width="162.2" />
    <path
       id="path5484"
       stroke-linejoin="round"
       style="color:#000000"
       d="m4458.4 5578.5c0 416.45-337.6 754.05-754.05 754.05s-754.05-337.6-754.05-754.05 337.6-754.05 754.05-754.05 754.05 337.6 754.05 754.05z"
       transform="matrix(.023660 0 0 .023660 341.39 378.64)"
       stroke="#666"
       stroke-linecap="square"
       stroke-width="162.2" />
    <path
       id="path5486"
       stroke-linejoin="round"
       d="m4458.4 5578.5c0 416.45-337.6 754.05-754.05 754.05s-754.05-337.6-754.05-754.05 337.6-754.05 754.05-754.05 754.05 337.6 754.05 754.05z"
       transform="matrix(.023660 0 0 .023660 277.95 378.64)"
       stroke="url(#linearGradient5625)"
       stroke-linecap="square"
       stroke-width="54.068"
       fill="#b3b3b3" />
    <path
       id="path5488"
       filter="url(#filter5561)"
       d="m328.42-236.25c-442.73 0-801.66 358.92-801.66 801.66 0 30.947 1.7742 61.466 5.1876 91.5 45.418-399.63 384.68-710.12 796.47-710.12 411.78 0 751.05 310.49 796.47 710.12 3.4134-30.034 5.1563-60.553 5.1563-91.5 0-442.73-358.89-801.66-801.63-801.66z"
       fill="url(#linearGradient5571)"
       transform="matrix(.18052 0 0 .18052 306.31 399.32)" />
    <rect
       id="rect5501"
       stroke-linejoin="round"
       transform="scale(1,-1)"
       ry="10.888"
       height="379.28"
       width="399.1"
       stroke="url(#linearGradient5503)"
       y="-701.59"
       x="168.03"
       stroke-width="5.7566"
       fill="none" />
    <path
       id="rect5521"
       opacity=".43981"
       stroke-linejoin="round"
       d="m2663 2046.2 267.21 351.4-3.6604 2335.4c48.669 0 87.851 39.181 87.851 87.851l2218.2-18.302 395.33 215.97c0 48.669-39.181 87.851-87.851 87.851h-2877.1c-48.669 0-87.851-39.181-87.851-87.851v-2884.4c0-48.669 39.181-87.851 87.851-87.851z"
       clip-path="url(#clipPath5540)"
       transform="matrix(0 -.18052 .18052 0 -273.36 1274.2)"
       filter="url(#filter5532)"
       stroke="#000"
       stroke-width="7.0866"
       fill="#333" />
    <path
       id="rect5594"
       stroke-linejoin="round"
       style="color:#000000"
       d="m372.63 498.91c-0.48757-0.38817-1.1927-0.30419-1.5809 0.18348l-5.917 7.4318-7.4362-5.9204c-0.48766-0.38826-1.1928-0.30419-1.5809 0.18339l-2.2347 2.8068c-0.38826 0.48767-0.31212 1.1937 0.17554 1.5819l7.4362 5.9204-5.9204 7.4363c-0.38826 0.48757-0.30864 1.1892 0.17902 1.5774l2.8112 2.2382c0.48758 0.38826 1.1892 0.30865 1.5774-0.17902l5.9205-7.4362 7.4362 5.9204c0.48767 0.38826 1.1971 0.30767 1.5854-0.17991l2.2347-2.8068c0.38817-0.48767 0.30767-1.1971-0.17991-1.5854l-7.4363-5.9204 5.917-7.4319c0.38817-0.48766 0.31213-1.1937-0.17554-1.5819l-2.8112-2.2382z"
       stroke="url(#linearGradient5615)"
       stroke-width="1.9189"
       fill="url(#linearGradient5633)" />
    <path
       id="path5617"
       stroke-linejoin="round"
       d="m4458.4 5578.5c0 416.45-337.6 754.05-754.05 754.05s-754.05-337.6-754.05-754.05 337.6-754.05 754.05-754.05 754.05 337.6 754.05 754.05z"
       transform="matrix(.025084 0 0 .025084 272.68 370.7)"
       stroke="#000"
       stroke-linecap="square"
       stroke-width="50.999"
       fill="none" />
  </g>
  <metadata
     id="metadata41">
    <rdf:RDF>
      <cc:Work>
        <dc:format>image/svg+xml</dc:format>
        <dc:type
           rdf:resource="http://purl.org/dc/dcmitype/StillImage" />
        <cc:license
           rdf:resource="http://creativecommons.org/licenses/publicdomain/" />
        <dc:publisher>
          <cc:Agent
             rdf:about="http://openclipart.org/">
            <dc:title>Openclipart</dc:title>
          </cc:Agent>
        </dc:publisher>
        <dc:title>Wall outlet</dc:title>
        <dc:date>2010-05-21T04:16:27</dc:date>
        <dc:description>Wall outlet</dc:description>
        <dc:source>http://openclipart.org/detail/61519/wall-outlet-by-babayasin</dc:source>
        <dc:creator>
          <cc:Agent>
            <dc:title>babayasin</dc:title>
          </cc:Agent>
        </dc:creator>
        <dc:subject>
          <rdf:Bag>
            <rdf:li>clip art</rdf:li>
            <rdf:li>clipart</rdf:li>
            <rdf:li>electricity</rdf:li>
            <rdf:li>outlet</rdf:li>
            <rdf:li>plug</rdf:li>
            <rdf:li>power</rdf:li>
            <rdf:li>розетка</rdf:li>
            <rdf:li>электричество</rdf:li>
          </rdf:Bag>
        </dc:subject>
      </cc:Work>
      <cc:License
         rdf:about="http://creativecommons.org/licenses/publicdomain/">
        <cc:permits
           rdf:resource="http://creativecommons.org/ns#Reproduction" />
        <cc:permits
           rdf:resource="http://creativecommons.org/ns#Distribution" />
        <cc:permits
           rdf:resource="http://creativecommons.org/ns#DerivativeWorks" />
      </cc:License>
    </rdf:RDF>
  </metadata>
</svg>
